<svg xmlns="http://www.w3.org/2000/svg" xmlns:xlink="http://www.w3.org/1999/xlink" width="60" zoomAndPan="magnify" viewBox="0 0 45 44.999999" height="60" preserveAspectRatio="xMidYMid meet" version="1.0"><defs><clipPath id="4d00cf1286"><path d="M 6.316406 19 L 39.222656 19 L 39.222656 34.023438 L 6.316406 34.023438 Z M 6.316406 19 " clip-rule="nonzero"/></clipPath><clipPath id="c4628862a4"><path d="M 6.316406 10.117188 L 39.222656 10.117188 L 39.222656 25 L 6.316406 25 Z M 6.316406 10.117188 " clip-rule="nonzero"/></clipPath></defs><path fill="#ff3d00" d="M 45 22.5 C 45 23.238281 44.964844 23.972656 44.890625 24.707031 C 44.820312 25.4375 44.710938 26.167969 44.566406 26.890625 C 44.425781 27.613281 44.246094 28.328125 44.03125 29.03125 C 43.816406 29.738281 43.570312 30.429688 43.289062 31.109375 C 43.003906 31.792969 42.691406 32.457031 42.34375 33.105469 C 41.996094 33.757812 41.617188 34.386719 41.207031 35 C 40.796875 35.613281 40.359375 36.203125 39.894531 36.773438 C 39.425781 37.34375 38.929688 37.890625 38.410156 38.410156 C 37.890625 38.929688 37.34375 39.425781 36.773438 39.894531 C 36.203125 40.359375 35.613281 40.796875 35 41.207031 C 34.386719 41.617188 33.757812 41.996094 33.105469 42.34375 C 32.457031 42.691406 31.792969 43.003906 31.109375 43.289062 C 30.429688 43.570312 29.738281 43.816406 29.03125 44.03125 C 28.328125 44.246094 27.613281 44.425781 26.890625 44.566406 C 26.167969 44.710938 25.4375 44.820312 24.707031 44.890625 C 23.972656 44.964844 23.238281 45 22.5 45 C 21.761719 45 21.027344 44.964844 20.292969 44.890625 C 19.5625 44.820312 18.832031 44.710938 18.109375 44.566406 C 17.386719 44.425781 16.671875 44.246094 15.96875 44.03125 C 15.261719 43.816406 14.570312 43.570312 13.890625 43.289062 C 13.207031 43.003906 12.542969 42.691406 11.894531 42.34375 C 11.242188 41.996094 10.613281 41.617188 10 41.207031 C 9.386719 40.796875 8.796875 40.359375 8.226562 39.894531 C 7.65625 39.425781 7.109375 38.929688 6.589844 38.410156 C 6.070312 37.890625 5.574219 37.34375 5.105469 36.773438 C 4.640625 36.203125 4.203125 35.613281 3.792969 35 C 3.382812 34.386719 3.003906 33.757812 2.65625 33.105469 C 2.308594 32.457031 1.996094 31.792969 1.710938 31.109375 C 1.429688 30.429688 1.183594 29.738281 0.96875 29.03125 C 0.753906 28.328125 0.574219 27.613281 0.433594 26.890625 C 0.289062 26.167969 0.179688 25.4375 0.109375 24.707031 C 0.0351562 23.972656 0 23.238281 0 22.5 C 0 21.761719 0.0351562 21.027344 0.109375 20.292969 C 0.179688 19.5625 0.289062 18.832031 0.433594 18.109375 C 0.574219 17.386719 0.753906 16.671875 0.96875 15.96875 C 1.183594 15.261719 1.429688 14.570312 1.710938 13.890625 C 1.996094 13.207031 2.308594 12.542969 2.65625 11.894531 C 3.003906 11.242188 3.382812 10.613281 3.792969 10 C 4.203125 9.386719 4.640625 8.796875 5.105469 8.226562 C 5.574219 7.65625 6.070312 7.109375 6.589844 6.589844 C 7.109375 6.070312 7.65625 5.574219 8.226562 5.105469 C 8.796875 4.640625 9.386719 4.203125 10 3.792969 C 10.613281 3.382812 11.242188 3.003906 11.894531 2.65625 C 12.542969 2.308594 13.207031 1.996094 13.890625 1.710938 C 14.570312 1.429688 15.261719 1.183594 15.96875 0.96875 C 16.671875 0.753906 17.386719 0.574219 18.109375 0.433594 C 18.832031 0.289062 19.5625 0.179688 20.292969 0.109375 C 21.027344 0.0351562 21.761719 0 22.5 0 C 23.238281 0 23.972656 0.0351562 24.707031 0.109375 C 25.4375 0.179688 26.167969 0.289062 26.890625 0.433594 C 27.613281 0.574219 28.328125 0.753906 29.03125 0.96875 C 29.738281 1.183594 30.429688 1.429688 31.109375 1.710938 C 31.792969 1.996094 32.457031 2.308594 33.105469 2.65625 C 33.757812 3.003906 34.386719 3.382812 35 3.792969 C 35.613281 4.203125 36.203125 4.640625 36.773438 5.105469 C 37.34375 5.574219 37.890625 6.070312 38.410156 6.589844 C 38.929688 7.109375 39.425781 7.65625 39.894531 8.226562 C 40.359375 8.796875 40.796875 9.386719 41.207031 10 C 41.617188 10.613281 41.996094 11.242188 42.34375 11.894531 C 42.691406 12.542969 43.003906 13.207031 43.289062 13.890625 C 43.570312 14.570312 43.816406 15.261719 44.03125 15.96875 C 44.246094 16.671875 44.425781 17.386719 44.566406 18.109375 C 44.710938 18.832031 44.820312 19.5625 44.890625 20.292969 C 44.964844 21.027344 45 21.761719 45 22.5 Z M 45 22.5 " fill-opacity="1" fill-rule="nonzero"/><g clip-path="url(#4d00cf1286)"><path fill="#ffffff" d="M 37.417969 34.027344 C 37.03125 34.027344 36.65625 33.902344 36.34375 33.671875 L 22.769531 23.648438 L 9.191406 33.671875 C 9 33.816406 8.785156 33.917969 8.554688 33.972656 C 8.324219 34.03125 8.085938 34.042969 7.851562 34.007812 C 7.617188 33.972656 7.390625 33.890625 7.1875 33.769531 C 6.984375 33.648438 6.808594 33.484375 6.667969 33.292969 C 6.527344 33.105469 6.425781 32.886719 6.367188 32.65625 C 6.308594 32.425781 6.296875 32.1875 6.332031 31.953125 C 6.40625 31.480469 6.660156 31.054688 7.046875 30.769531 L 21.695312 19.941406 C 22.007812 19.710938 22.382812 19.585938 22.769531 19.585938 C 23.15625 19.585938 23.53125 19.710938 23.839844 19.941406 L 38.492188 30.769531 C 38.796875 30.996094 39.023438 31.3125 39.140625 31.671875 C 39.253906 32.035156 39.253906 32.425781 39.132812 32.785156 C 39.015625 33.148438 38.785156 33.460938 38.476562 33.683594 C 38.167969 33.90625 37.796875 34.027344 37.417969 34.027344 Z M 37.417969 34.027344 " fill-opacity="1" fill-rule="nonzero"/></g><g clip-path="url(#c4628862a4)"><path fill="#ffffff" d="M 37.417969 24.550781 C 37.03125 24.554688 36.65625 24.429688 36.34375 24.199219 L 22.769531 14.175781 L 9.191406 24.199219 C 8.804688 24.484375 8.324219 24.605469 7.851562 24.535156 C 7.378906 24.464844 6.953125 24.207031 6.667969 23.820312 C 6.382812 23.4375 6.261719 22.953125 6.332031 22.480469 C 6.40625 22.007812 6.660156 21.578125 7.046875 21.296875 L 21.695312 10.46875 C 22.003906 10.238281 22.382812 10.113281 22.769531 10.113281 C 23.152344 10.113281 23.53125 10.238281 23.839844 10.46875 L 38.492188 21.296875 C 38.796875 21.519531 39.023438 21.835938 39.140625 22.199219 C 39.253906 22.5625 39.253906 22.953125 39.132812 23.3125 C 39.015625 23.675781 38.785156 23.988281 38.476562 24.210938 C 38.167969 24.433594 37.796875 24.554688 37.417969 24.550781 Z M 37.417969 24.550781 " fill-opacity="1" fill-rule="nonzero"/></g></svg>